<svg width="159" height="55" viewBox="0 0 159 55" fill="none" xmlns="http://www.w3.org/2000/svg">
<path d="M32.3896 10.4434H36.7953V12.2237C37.4591 11.4794 38.2437 10.9262 39.1489 10.5641C40.0743 10.1818 41.0399 9.99074 42.0458 9.99074C44.0173 9.99074 45.4858 10.5238 46.4514 11.59C47.4371 12.6361 47.93 14.0544 47.93 15.8448V24.9276H43.3735V16.3578C43.3735 14.4869 42.5085 13.5514 40.7784 13.5514C40.014 13.5514 39.2998 13.7425 38.636 14.1248C37.9721 14.4869 37.4088 15.03 36.9461 15.7542V24.9276H32.3896V10.4434Z" fill="white"/>
<path d="M50.8523 2.62793H55.4088V24.9276H50.8523V2.62793Z" fill="white"/>
<path d="M60.9752 8.21039C60.2711 8.21039 59.6776 7.97904 59.1948 7.51635C58.712 7.05366 58.4706 6.47027 58.4706 5.76617C58.4706 5.0822 58.712 4.50887 59.1948 4.04618C59.6776 3.56337 60.2711 3.32197 60.9752 3.32197C61.6793 3.32197 62.2727 3.56337 62.7555 4.04618C63.2383 4.50887 63.4797 5.0822 63.4797 5.76617C63.4797 6.47027 63.2383 7.05366 62.7555 7.51635C62.2727 7.97904 61.6793 8.21039 60.9752 8.21039ZM58.6818 10.4434H63.2685V24.9276H58.6818V10.4434Z" fill="white"/>
<path d="M66.5015 10.4434H70.9071V12.2237C71.571 11.4794 72.3555 10.9262 73.2608 10.5641C74.1862 10.1818 75.1518 9.99074 76.1576 9.99074C78.1291 9.99074 79.5976 10.5238 80.5633 11.59C81.549 12.6361 82.0419 14.0544 82.0419 15.8448V24.9276H77.4854V16.3578C77.4854 14.4869 76.6203 13.5514 74.8903 13.5514C74.1258 13.5514 73.4117 13.7425 72.7478 14.1248C72.084 14.4869 71.5207 15.03 71.058 15.7542V24.9276H66.5015V10.4434Z" fill="white"/>
<path d="M93.2926 25.3802C90.5164 25.3802 88.3337 24.7164 86.7445 23.3886C85.1553 22.0408 84.3606 20.1599 84.3606 17.7458C84.3606 15.3519 85.0647 13.4609 86.4729 12.0728C87.9012 10.6848 89.933 9.99074 92.5684 9.99074C94.2984 9.99074 95.767 10.3126 96.974 10.9564C98.181 11.6001 99.0963 12.4953 99.7199 13.642C100.344 14.7685 100.655 16.0459 100.655 17.4742V19.3149H88.7059C89.0278 21.1657 90.7578 22.0911 93.8961 22.0911C94.8215 22.0911 95.777 22.0106 96.7627 21.8497C97.7485 21.6887 98.6034 21.4675 99.3277 21.1858V24.3844C98.6236 24.6862 97.7183 24.9276 96.6119 25.1086C95.5054 25.2897 94.399 25.3802 93.2926 25.3802ZM96.3403 16.3578C96.2799 15.3921 95.9178 14.6478 95.254 14.1248C94.5901 13.5816 93.6748 13.31 92.508 13.31C91.3613 13.31 90.4561 13.5816 89.7922 14.1248C89.1283 14.6679 88.7662 15.4123 88.7059 16.3578H96.3403Z" fill="white"/>
<path d="M0 19.3236H5.78319V41.0866H17.9583V45.9186H0V19.3236Z" fill="white"/>
<path d="M30.8343 46.4893C27.3339 46.4893 24.5818 45.6523 22.578 43.9782C20.5742 42.2788 19.5723 39.9071 19.5723 36.8634C19.5723 33.8449 20.46 31.4606 22.2356 29.7105C24.0365 27.9603 26.5983 27.0852 29.9211 27.0852C32.1025 27.0852 33.9542 27.491 35.476 28.3027C36.9979 29.1144 38.152 30.2431 38.9384 31.6889C39.7247 33.1094 40.1178 34.72 40.1178 36.5209V38.8418H25.0511C25.4569 41.1754 27.6383 42.3422 31.5952 42.3422C32.762 42.3422 33.9668 42.2407 35.2097 42.0378C36.4526 41.8349 37.5306 41.5559 38.4437 41.2008V45.2338C37.556 45.6142 36.4145 45.9186 35.0195 46.1469C33.6244 46.3752 32.2293 46.4893 30.8343 46.4893ZM34.6771 35.1132C34.601 33.8957 34.1444 32.9572 33.3074 32.2977C32.4703 31.6128 31.3162 31.2704 29.845 31.2704C28.3993 31.2704 27.2578 31.6128 26.4208 32.2977C25.5837 32.9825 25.1272 33.921 25.0511 35.1132H34.6771Z" fill="white"/>
<path d="M50.0035 46.4893C47.7714 46.4893 45.9451 45.9313 44.5247 44.8152C43.1296 43.6738 42.4321 42.1266 42.4321 40.1735C42.4321 38.1443 43.1043 36.5717 44.4486 35.4556C45.7929 34.3142 47.6953 33.7435 50.1557 33.7435C51.2464 33.7435 52.2863 33.8576 53.2756 34.0859C54.2648 34.3142 55.1399 34.6313 55.9008 35.0371V34.5805C55.9008 33.4391 55.495 32.6021 54.6833 32.0694C53.8716 31.5367 52.6288 31.2704 50.9547 31.2704C48.7226 31.2704 46.668 31.6889 44.791 32.526V28.3408C45.6027 27.9857 46.6553 27.694 47.9489 27.4657C49.2425 27.212 50.5362 27.0852 51.8298 27.0852C55.1272 27.0852 57.5876 27.7701 59.2109 29.1398C60.8343 30.4841 61.646 32.3738 61.646 34.8088V45.9186H56.2433V44.2445C54.696 45.7411 52.6161 46.4893 50.0035 46.4893ZM51.5634 42.6846C52.5019 42.6846 53.3517 42.507 54.1126 42.1519C54.8735 41.7968 55.4696 41.3022 55.9008 40.6681V38.8418C54.6072 37.9794 53.1868 37.5482 51.6395 37.5482C50.5742 37.5482 49.7498 37.7765 49.1665 38.2331C48.6084 38.6643 48.3294 39.3111 48.3294 40.1735C48.3294 40.9852 48.6084 41.6066 49.1665 42.0378C49.7245 42.469 50.5235 42.6846 51.5634 42.6846Z" fill="white"/>
<path d="M65.3469 27.6559H70.9018V30.2812C71.6374 29.3934 72.6646 28.7212 73.9836 28.2647C75.3026 27.7827 76.7991 27.5418 78.4732 27.5418V31.9172C76.723 31.9172 75.1758 32.1835 73.8314 32.7162C72.5124 33.2489 71.5993 34.0605 71.092 35.1512V45.9186H65.3469V27.6559Z" fill="white"/>
<path d="M80.8127 27.6559H86.3676V29.9007C87.2047 28.9622 88.1939 28.2647 89.3353 27.8081C90.5021 27.3262 91.7196 27.0852 92.9878 27.0852C95.4736 27.0852 97.3252 27.7574 98.5427 29.1017C99.7856 30.4207 100.407 32.2089 100.407 34.4664V45.9186H94.6619V35.1132C94.6619 32.7543 93.5712 31.5748 91.3899 31.5748C90.426 31.5748 89.5255 31.8158 88.6885 32.2977C87.8515 32.7543 87.1412 33.4391 86.5578 34.3522V45.9186H80.8127V27.6559Z" fill="white"/>
<path d="M107.276 24.8404C106.389 24.8404 105.64 24.5487 105.032 23.9653C104.423 23.3819 104.118 22.6464 104.118 21.7586C104.118 20.8962 104.423 20.1733 105.032 19.5899C105.64 18.9811 106.389 18.6768 107.276 18.6768C108.164 18.6768 108.912 18.9811 109.521 19.5899C110.13 20.1733 110.434 20.8962 110.434 21.7586C110.434 22.6464 110.13 23.3819 109.521 23.9653C108.912 24.5487 108.164 24.8404 107.276 24.8404ZM104.385 27.6559H110.168V45.9186H104.385V27.6559Z" fill="white"/>
<path d="M114.271 27.6559H119.826V29.9007C120.663 28.9622 121.652 28.2647 122.794 27.8081C123.96 27.3262 125.178 27.0852 126.446 27.0852C128.932 27.0852 130.784 27.7574 132.001 29.1017C133.244 30.4207 133.865 32.2089 133.865 34.4664V45.9186H128.12V35.1132C128.12 32.7543 127.03 31.5748 124.848 31.5748C123.884 31.5748 122.984 31.8158 122.147 32.2977C121.31 32.7543 120.6 33.4391 120.016 34.3522V45.9186H114.271V27.6559Z" fill="white"/>
<path d="M147.393 54.6695C146.175 54.6695 144.945 54.5554 143.702 54.3271C142.485 54.0988 141.457 53.7944 140.62 53.4139V49.1907C142.574 50.0531 144.831 50.4843 147.393 50.4843C149.447 50.4843 150.919 50.0658 151.806 49.2287C152.694 48.3917 153.138 47.1361 153.138 45.4621V44.3206C152.352 45.0309 151.388 45.5635 150.246 45.9186C149.105 46.2991 147.887 46.4893 146.594 46.4893C144.717 46.4893 143.03 46.0835 141.534 45.2718C140.062 44.4348 138.908 43.2807 138.071 41.8095C137.234 40.3383 136.816 38.6643 136.816 36.7873C136.816 34.8595 137.222 33.1601 138.033 31.6889C138.87 30.2178 140.012 29.089 141.457 28.3027C142.929 27.491 144.603 27.0852 146.48 27.0852C147.9 27.0852 149.156 27.2881 150.246 27.694C151.337 28.0998 152.364 28.7466 153.328 29.6344V27.6559H158.883V44.7392C158.883 47.9098 157.945 50.3575 156.068 52.0823C154.191 53.8071 151.299 54.6695 147.393 54.6695ZM147.964 42.0378C149.156 42.0378 150.221 41.7207 151.16 41.0866C152.123 40.4271 152.783 39.5647 153.138 38.4994V35.0751C152.732 34.0098 152.06 33.1601 151.121 32.526C150.208 31.8919 149.156 31.5748 147.964 31.5748C146.416 31.5748 145.148 32.044 144.159 32.9825C143.195 33.921 142.713 35.1766 142.713 36.7492C142.713 38.3472 143.195 39.6281 144.159 40.592C145.148 41.5559 146.416 42.0378 147.964 42.0378Z" fill="white"/>
<path d="M18.3573 0C15.0517 0 11.8815 1.31314 9.54411 3.65055C7.2067 5.98796 5.89355 9.15817 5.89355 12.4638C5.89355 15.7694 7.2067 18.9396 9.54411 21.277C11.8815 23.6144 15.0517 24.9275 18.3573 24.9275C21.6629 24.9275 24.8331 23.6144 27.1705 21.277C29.5079 18.9396 30.8211 15.7694 30.8211 12.4638C30.8211 9.15817 29.5079 5.98796 27.1705 3.65055C24.8331 1.31314 21.6629 0 18.3573 0ZM15.7649 1.86801C17.4692 1.45172 19.2486 1.45172 20.9529 1.86801L18.3573 3.3808L15.7649 1.86957V1.86801ZM13.8267 2.54105L17.5815 4.73V7.37855L13.2674 10.4197L10.837 9.53634L9.86171 5.62272C10.9265 4.3015 12.2839 3.24597 13.8267 2.53949V2.54105ZM8.69946 7.39413L9.31174 9.85573L7.49826 11.4667C7.63069 10.0068 8.04979 8.63116 8.70102 7.39413H8.69946ZM7.5045 13.5419L10.3509 11.018L12.7595 11.892L14.3876 17.0177L13.2705 18.6894H9.40211C8.33879 17.1646 7.68534 15.392 7.5045 13.5419ZM10.7186 20.2474H13.1397L13.9342 22.4348C12.7402 21.9038 11.651 21.163 10.7186 20.2474ZM15.8225 23.0735L14.5528 19.5743L15.6589 17.9182H21.0604L22.1681 19.5743L20.8984 23.072C19.2299 23.4703 17.491 23.4703 15.8225 23.072V23.0735ZM22.7882 22.4317L23.5828 20.2474H25.9961C25.0656 21.161 23.9792 21.9007 22.7882 22.4317ZM27.3125 18.6894H23.4519L22.3301 17.0146L23.9271 11.8935L26.3684 11.0149L29.2101 13.5419C29.0293 15.392 28.3759 17.1646 27.3125 18.6894ZM29.2179 11.4636L27.4107 9.85728L28.023 7.40815C28.668 8.63895 29.0855 10.01 29.2179 11.4636ZM26.8592 5.63362L25.8854 9.53323L23.4176 10.4213L19.1379 7.38011V4.73156L22.891 2.53949C24.4365 3.24798 25.7957 4.30683 26.8607 5.63206L26.8592 5.63362ZM14.3019 11.6007L18.3573 8.73554L22.3862 11.5975L20.903 16.3587H15.8132L14.3019 11.5975V11.6007Z" fill="white"/>
</svg>
